<svg width="186" height="91" viewBox="0 0 186 91" fill="none" xmlns="http://www.w3.org/2000/svg">
<path d="M33.9358 55.4864H40.6334C41.5207 55.4584 42.4366 55.598 43.2666 55.9329C43.8677 56.1841 44.4115 56.5748 44.8408 57.0772C45.2129 57.5238 45.4705 58.0262 45.585 58.5565C45.6995 59.0309 45.7854 59.5333 45.7854 60.0357C45.7854 60.5381 45.6995 61.0405 45.585 61.5149C45.4419 62.0452 45.1843 62.5755 44.8408 62.9942C44.4115 63.4965 43.8677 63.8594 43.2666 64.1106C42.4366 64.4455 41.5207 64.585 40.6334 64.5571H36.5977V70.3066H33.9358V55.4864ZM36.5977 62.4918H40.4903C40.8051 62.4918 41.1199 62.436 41.4062 62.3522C41.721 62.2685 42.0072 62.1289 42.2648 61.9615C42.5224 61.7661 42.7514 61.5149 42.8945 61.2079C43.0663 60.8451 43.1521 60.4543 43.1521 60.0357C43.1521 59.617 43.0949 59.2263 42.9518 58.8356C42.6942 58.2495 42.179 57.8308 41.5493 57.6912C41.2344 57.6075 40.891 57.5796 40.5475 57.5796H36.6263V62.4918H36.5977Z" fill="white"/>
<path d="M56.9765 67.9064C56.9479 68.1296 57.0051 68.325 57.091 68.5204C57.2055 68.6599 57.3772 68.7436 57.549 68.7157H57.8066C57.9211 68.7157 58.0355 68.6878 58.15 68.6599V70.3066C58.0642 70.3345 57.9497 70.3624 57.8352 70.3903C57.6921 70.4183 57.549 70.4462 57.4058 70.4741C57.2627 70.502 57.1196 70.5299 56.9765 70.5299C56.8334 70.5299 56.7189 70.5578 56.6044 70.5578C56.1751 70.5857 55.7458 70.4741 55.3737 70.2787C55.0302 70.0554 54.8012 69.6647 54.744 69.2739C54.2574 69.7484 53.6277 70.0833 52.9694 70.2787C52.3111 70.4741 51.6242 70.5857 50.9373 70.5857C50.4507 70.5857 49.9641 70.5299 49.5061 70.3903C49.0768 70.2787 48.6761 70.0833 48.304 69.8042C47.9605 69.553 47.6743 69.2181 47.474 68.8274C47.2736 68.4087 47.1591 67.9343 47.1591 67.4598C47.1305 66.9016 47.2736 66.3434 47.5312 65.841C47.7602 65.4503 48.1037 65.1153 48.5044 64.8642C48.9337 64.613 49.3917 64.4455 49.8782 64.3618C50.3934 64.2501 50.88 64.1943 51.3952 64.1385C51.7959 64.0548 52.2253 63.9989 52.6546 63.971C52.998 63.9431 53.3701 63.8873 53.7136 63.8036C53.9712 63.7478 54.2288 63.6082 54.4291 63.4128C54.6295 63.1895 54.7154 62.9104 54.6867 62.6313C54.6867 62.3522 54.6295 62.101 54.4578 61.8778C54.3147 61.6824 54.1143 61.5429 53.914 61.4312C53.685 61.3196 53.4274 61.2638 53.1698 61.2079C52.9122 61.18 52.6546 61.1521 52.397 61.1521C51.7959 61.1242 51.2235 61.2638 50.7083 61.5708C50.2503 61.8499 49.9927 62.3243 49.9641 62.8546H47.5598C47.5885 62.2406 47.7602 61.6545 48.075 61.1242C48.3613 60.6776 48.762 60.2869 49.2199 60.0357C49.7065 59.7566 50.2217 59.5612 50.7941 59.4496C51.3952 59.3379 51.9676 59.2821 52.5687 59.2821C53.1125 59.2821 53.6277 59.3379 54.1716 59.4496C54.6581 59.5612 55.1447 59.7287 55.574 59.9799C55.9747 60.2311 56.3182 60.5381 56.5758 60.9567C56.8334 61.4033 56.9765 61.8778 56.9479 62.4081L56.9765 67.9064ZM54.5723 64.92C54.1716 65.1712 53.685 65.3107 53.1984 65.3386C52.6546 65.3944 52.1108 65.4503 51.5956 65.5619C51.338 65.5898 51.0804 65.6735 50.8514 65.7294C50.6224 65.7852 50.4221 65.8968 50.2217 66.0364C50.0213 66.1759 49.8782 66.3434 49.7924 66.5667C49.6779 66.8179 49.6206 67.0691 49.6206 67.3482C49.6206 67.5993 49.7065 67.8226 49.8496 68.018C49.9927 68.1854 50.1931 68.3529 50.4221 68.4366C50.651 68.5483 50.88 68.6041 51.1376 68.6599C51.3666 68.6878 51.6242 68.7157 51.8532 68.7157C52.1394 68.7157 52.4256 68.6878 52.7118 68.6041C53.0267 68.5483 53.3129 68.4087 53.5991 68.2413C53.8853 68.0738 54.1143 67.8505 54.286 67.5993C54.4864 67.3202 54.5723 66.9853 54.5723 66.6504V64.92Z" fill="white"/>
<path d="M59.6099 59.5612H61.8996V61.6545H61.9283C62.0141 61.3475 62.1572 61.0684 62.3576 60.8172C62.5579 60.5381 62.8155 60.2869 63.1018 60.0636C63.388 59.8403 63.7315 59.645 64.0749 59.5054C64.4184 59.3659 64.7905 59.31 65.1626 59.31C65.3629 59.31 65.5346 59.3101 65.735 59.338L66.0498 59.3938V61.6824C65.8781 61.6545 65.7064 61.6266 65.5346 61.5987C65.3629 61.5708 65.1912 61.5708 65.0194 61.5708C64.6187 61.5708 64.218 61.6545 63.8746 61.794C63.5025 61.9615 63.1876 62.2127 62.93 62.4918C62.6438 62.8267 62.4148 63.2175 62.3003 63.6361C62.1286 64.1385 62.0427 64.6688 62.0714 65.1991V70.3066H59.6385L59.6099 59.5612Z" fill="white"/>
<path d="M76.2966 67.9064C76.268 68.1296 76.3252 68.325 76.4111 68.5204C76.5256 68.6599 76.6973 68.7436 76.869 68.7157H77.1266C77.2411 68.7157 77.3556 68.6878 77.4701 68.6599V70.3066C77.3842 70.3345 77.2697 70.3624 77.1552 70.3903C77.0408 70.4183 76.869 70.4462 76.7259 70.4741C76.5828 70.502 76.4397 70.5299 76.2966 70.5299C76.1821 70.5299 76.0676 70.5578 75.9245 70.5578C75.4952 70.5857 75.0658 70.4741 74.6938 70.2787C74.3503 70.0554 74.1213 69.6647 74.0641 69.246C73.5775 69.7205 72.9478 70.0554 72.2895 70.2508C71.6312 70.4462 70.9443 70.5578 70.2573 70.5578C69.7707 70.5578 69.2842 70.502 68.8262 70.3624C68.3969 70.2508 67.9962 70.0554 67.6241 69.7763C67.2806 69.5251 66.9944 69.1902 66.794 68.7995C66.5937 68.3808 66.4792 67.9064 66.4792 67.4319C66.4506 66.8737 66.5937 66.3155 66.8513 65.8131C67.0803 65.4224 67.4237 65.0874 67.8244 64.8362C68.2538 64.5851 68.7117 64.4176 69.1983 64.3339C69.7135 64.2222 70.2001 64.1385 70.7153 64.1106C71.116 64.0268 71.5453 63.971 71.9747 63.9431C72.3181 63.9152 72.6902 63.8594 73.0337 63.7757C73.2913 63.7198 73.5489 63.5803 73.7492 63.3849C73.9496 63.1616 74.0354 62.8825 74.0068 62.6034C74.0068 62.3243 73.9496 62.0731 73.7778 61.8499C73.6347 61.6545 73.4344 61.5149 73.234 61.4033C73.005 61.2917 72.7474 61.2358 72.4898 61.2079C72.2322 61.18 71.9746 61.1521 71.717 61.1521C71.116 61.1242 70.5435 61.2638 70.0283 61.5708C69.5704 61.8499 69.3128 62.3243 69.2842 62.8546H66.8513C66.8799 62.2406 67.0516 61.6545 67.3665 61.1242C67.6527 60.6776 68.0534 60.3148 68.5114 60.0357C68.9979 59.7566 69.5131 59.5612 70.0856 59.4496C70.6867 59.3379 71.2591 59.2821 71.8602 59.2821C72.404 59.2821 72.9192 59.3379 73.463 59.4496C73.9496 59.5612 74.4361 59.7287 74.8655 59.9799C75.2662 60.2311 75.6097 60.5381 75.8673 60.9567C76.1249 61.4033 76.268 61.8778 76.2393 62.4081L76.2966 67.9064ZM73.8637 64.92C73.463 65.1712 72.9764 65.3107 72.4898 65.3386C71.946 65.3944 71.4022 65.4503 70.887 65.5619C70.6294 65.5898 70.3718 65.6456 70.1428 65.7294C69.9138 65.7852 69.6849 65.8968 69.5131 66.0364C69.3128 66.1759 69.1697 66.3434 69.0838 66.5667C68.9693 66.8179 68.9121 67.0691 68.9121 67.3482C68.9121 67.5993 68.9979 67.8226 69.1411 68.018C69.2842 68.1854 69.4845 68.3529 69.7135 68.4366C69.9425 68.5483 70.1714 68.6041 70.429 68.6599C70.658 68.6878 70.9156 68.7157 71.1446 68.7157C71.4308 68.7157 71.717 68.6878 72.0033 68.6041C72.3181 68.5483 72.6043 68.4087 72.8906 68.2413C73.1768 68.0738 73.4058 67.8505 73.5775 67.5993C73.7778 67.3202 73.8637 66.9853 73.8637 66.6504V64.92Z" fill="white"/>
<path d="M86.3143 63.1616C86.257 62.5755 85.9708 62.0452 85.5129 61.6545C85.0263 61.2917 84.4252 61.1242 83.8242 61.1521C83.4807 61.1521 83.1372 61.2079 82.8224 61.3196C82.4503 61.4312 82.1068 61.6266 81.8492 61.9057C81.5058 62.2406 81.2768 62.6313 81.1051 63.0779C80.8761 63.7198 80.7902 64.3897 80.8188 65.0595C80.8188 65.5061 80.8761 65.9527 80.9906 66.3992C81.0764 66.8179 81.2482 67.2086 81.5058 67.5714C81.7347 67.9064 82.0496 68.2134 82.3931 68.4087C82.7938 68.632 83.2517 68.7437 83.7383 68.7437C84.368 68.7716 84.9977 68.5204 85.4556 68.1017C85.9422 67.6272 86.257 66.9853 86.3143 66.2876H88.7472C88.5182 67.6831 87.9744 68.7437 87.1157 69.4972C86.257 70.2508 85.1122 70.6136 83.7097 70.6136C82.9369 70.6415 82.1355 70.4741 81.4199 70.195C80.7902 69.9438 80.2178 69.5251 79.7598 69.0228C79.3019 68.5204 78.9584 67.9064 78.7294 67.2644C78.5004 66.5667 78.3573 65.8131 78.386 65.0595C78.386 64.306 78.5004 63.5245 78.7294 62.7988C78.9298 62.129 79.2732 61.5149 79.7598 60.9567C80.2178 60.4265 80.7902 60.0078 81.4485 59.7287C82.1927 59.4217 82.9941 59.2542 83.8242 59.2821C84.4252 59.2821 85.0549 59.3659 85.6274 59.5054C86.1712 59.645 86.6864 59.8962 87.1443 60.2311C87.6023 60.5381 87.9744 60.9567 88.232 61.4312C88.5182 61.9615 88.7185 62.5476 88.7472 63.1616H86.3143Z" fill="white"/>
<path d="M90.7219 55.4864H93.1548V60.9847H93.2121C93.5269 60.4823 93.9848 60.0636 94.5287 59.7845C95.1297 59.4496 95.8167 59.2822 96.5036 59.2822C97.7057 59.2822 98.6503 59.5892 99.3658 60.2032C100.081 60.8172 100.425 61.7103 100.396 62.9384V70.3066H97.9633V63.5803C97.9347 62.743 97.763 62.129 97.4195 61.7382C97.076 61.3475 96.5608 61.18 95.8167 61.18C95.4446 61.18 95.0725 61.2359 94.7004 61.4033C94.3855 61.5429 94.0993 61.7382 93.8704 62.0173C93.6414 62.2964 93.4697 62.5755 93.3552 62.9105C93.2121 63.2733 93.1548 63.6361 93.1548 63.999V70.3066H90.7219V55.4864Z" fill="white"/>
<path d="M112.561 70.2787H110.185V68.7995H110.128C109.813 69.3577 109.355 69.8042 108.811 70.0833C108.267 70.3903 107.638 70.5578 107.008 70.5857C105.548 70.5857 104.518 70.2508 103.86 69.5251C103.201 68.7995 102.886 67.7668 102.886 66.3713V59.5612H105.319V66.1201C105.319 67.0411 105.491 67.711 105.863 68.1017C106.264 68.4924 106.836 68.7157 107.409 68.6878C107.838 68.7157 108.267 68.632 108.697 68.4646C109.012 68.325 109.298 68.1296 109.527 67.8505C109.756 67.5714 109.899 67.2644 109.985 66.9295C110.071 66.5388 110.128 66.148 110.128 65.7573V59.5333H112.561V70.2787Z" fill="white"/>
<path d="M114.021 59.5612H115.852V56.3516H118.285V59.5612H120.489V61.3195H118.285V67.0411C118.285 67.2644 118.285 67.4598 118.314 67.683C118.343 67.8505 118.371 67.9901 118.457 68.1296C118.543 68.2692 118.657 68.3529 118.801 68.4087C119.001 68.4924 119.23 68.5204 119.43 68.4924C119.602 68.4924 119.774 68.4924 119.945 68.4924C120.117 68.4924 120.289 68.4645 120.461 68.4087V70.2229L119.659 70.3066C119.402 70.3345 119.144 70.3624 118.858 70.3624C118.343 70.3903 117.827 70.3066 117.312 70.1949C116.969 70.1112 116.654 69.9159 116.396 69.6647C116.167 69.4135 116.024 69.1344 115.938 68.7994C115.852 68.4087 115.795 68.018 115.795 67.6272V61.2916H113.963L114.021 59.5612Z" fill="white"/>
<path d="M124.095 65.534C124.095 65.9526 124.153 66.3434 124.267 66.7341C124.382 67.097 124.553 67.4598 124.811 67.7389C125.069 68.0459 125.383 68.2692 125.727 68.4366C126.128 68.632 126.585 68.7157 127.043 68.6878C127.645 68.7157 128.246 68.5762 128.761 68.2413C129.219 67.9063 129.562 67.4319 129.734 66.9016H132.024C131.795 67.9901 131.165 68.9669 130.249 69.6089C129.791 69.9159 129.305 70.1671 128.761 70.3066C128.217 70.4741 127.616 70.5578 127.043 70.5578C126.271 70.5578 125.469 70.4183 124.754 70.1392C124.124 69.888 123.523 69.4693 123.065 68.9669C122.578 68.4645 122.235 67.8505 122.035 67.1807C121.806 66.455 121.663 65.6735 121.691 64.892C121.691 64.1664 121.806 63.4128 122.063 62.7151C122.292 62.0452 122.664 61.4312 123.122 60.9009C124.095 59.8124 125.526 59.1705 126.986 59.1984C127.788 59.1984 128.589 59.3658 129.305 59.7287C129.963 60.0636 130.564 60.5381 131.022 61.1242C131.48 61.7103 131.823 62.4081 132.024 63.1337C132.224 63.8873 132.281 64.6967 132.167 65.4502L124.095 65.534ZM129.734 63.971C129.705 63.6082 129.619 63.2454 129.476 62.8825C129.362 62.5476 129.162 62.2406 128.933 61.9894C128.704 61.7382 128.389 61.5149 128.074 61.3754C127.73 61.2079 127.33 61.1242 126.958 61.1521C126.557 61.1521 126.185 61.2358 125.813 61.3754C125.469 61.5149 125.183 61.7103 124.925 61.9894C124.668 62.2406 124.467 62.5476 124.324 62.8825C124.181 63.2454 124.095 63.6082 124.067 63.9989L129.734 63.971Z" fill="white"/>
<path d="M68.0532 72.9581H79.3303V75.0235H74.9225V86.5504H72.4897V75.0235H68.0532V72.9581Z" fill="white"/>
<path d="M80.2177 82.1963C80.2177 82.5871 80.2749 82.9499 80.3894 83.3127C80.5039 83.6476 80.6756 83.9547 80.876 84.2338C81.105 84.5129 81.3912 84.7361 81.706 84.8757C82.0781 85.0431 82.5075 85.1269 82.9368 85.099C83.4806 85.1269 84.0531 84.9873 84.511 84.6803C84.9403 84.3733 85.2552 83.9546 85.3983 83.4523H87.5163C87.4018 83.9546 87.2015 84.457 86.9153 84.8757C86.6291 85.2943 86.2856 85.6572 85.8849 85.9363C85.4842 86.2154 85.0262 86.4386 84.5396 86.5782C84.0244 86.7177 83.5092 86.8015 82.9654 86.8015C82.2499 86.8015 81.5343 86.6898 80.8474 86.4107C80.2463 86.1875 79.7311 85.8246 79.3018 85.3502C78.8724 84.8757 78.529 84.3175 78.3573 83.7035C78.1283 83.0336 78.0138 82.308 78.0424 81.6102C78.0424 80.9404 78.1569 80.2705 78.3859 79.6286C78.6149 79.0146 78.9297 78.4564 79.359 77.9819C80.2463 76.9771 81.5629 76.391 82.9082 76.4189C83.6523 76.4189 84.3965 76.5864 85.0548 76.8934C85.6559 77.2004 86.1997 77.647 86.6291 78.1773C87.0584 78.7355 87.3446 79.3495 87.545 80.0193C87.7453 80.7171 87.7739 81.4427 87.6881 82.1684L80.2177 82.1963ZM85.3983 80.7729C85.3697 80.438 85.2838 80.1031 85.1693 79.7961C85.0548 79.489 84.8831 79.2099 84.6541 78.9587C84.4251 78.7355 84.1675 78.5401 83.8813 78.4005C83.5665 78.261 83.223 78.1773 82.8509 78.1773C82.4788 78.1773 82.1354 78.2331 81.7919 78.3726C81.4771 78.5122 81.1908 78.6797 80.9619 78.9308C80.7329 79.182 80.5325 79.4611 80.4181 79.7681C80.2749 80.1031 80.2177 80.438 80.1891 80.8008L85.3983 80.7729Z" fill="white"/>
<path d="M96.1315 79.9915C96.0743 79.4612 95.8167 78.9588 95.3874 78.6239C94.9294 78.2889 94.3856 78.1215 93.8418 78.1494C93.5269 78.1494 93.2121 78.2052 92.9259 78.2889C92.5824 78.4006 92.2675 78.568 92.0386 78.8192C91.7237 79.1263 91.4948 79.4891 91.3517 79.9077C91.1513 80.4939 91.0368 81.1079 91.0654 81.7219C91.0654 82.1405 91.1227 82.5313 91.2085 82.9499C91.2944 83.3407 91.4661 83.7035 91.6665 84.0384C91.8668 84.3454 92.1531 84.6245 92.4965 84.8199C92.8686 85.0153 93.298 85.1269 93.7273 85.1269C94.3283 85.1548 94.9008 84.9315 95.3301 84.5408C95.7881 84.0942 96.0743 83.5081 96.1315 82.8941H98.3641C98.1637 84.178 97.6485 85.1548 96.8757 85.8247C96.1029 86.4945 95.0439 86.8573 93.7559 86.8294C93.0403 86.8573 92.3248 86.7178 91.6665 86.4387C91.094 86.1875 90.5502 85.8247 90.1495 85.3781C89.7202 84.9036 89.4053 84.3734 89.205 83.7593C88.976 83.1174 88.8901 82.4196 88.8901 81.7498C88.8901 81.052 89.0046 80.3543 89.205 79.6844C89.4053 79.0704 89.7202 78.5122 90.1495 78.0098C90.5788 77.5354 91.094 77.1446 91.6951 76.8934C92.382 76.6143 93.1262 76.4469 93.8704 76.4748C94.4428 76.4748 94.9867 76.5585 95.5305 76.6981C96.0457 76.8376 96.5036 77.0609 96.933 77.34C97.3337 77.647 97.6771 78.0099 97.9347 78.4564C98.221 78.9309 98.3641 79.4891 98.3927 80.0473L96.1315 79.9915Z" fill="white"/>
<path d="M100.167 72.9581H102.4V78.0099H102.428C102.715 77.5354 103.144 77.1446 103.659 76.8935C104.203 76.5864 104.833 76.4469 105.462 76.4469C106.579 76.4469 107.437 76.726 108.067 77.2842C108.697 77.8424 109.012 78.6797 109.012 79.7961V86.5504H106.779V80.3543C106.75 79.5728 106.579 79.0146 106.264 78.6797C105.949 78.3448 105.462 78.1494 104.804 78.1494C104.461 78.1494 104.117 78.2052 103.802 78.3448C103.516 78.4843 103.258 78.6518 103.03 78.903C102.801 79.1542 102.657 79.4333 102.543 79.7403C102.428 80.0752 102.371 80.4101 102.371 80.7451V86.5504H100.139L100.167 72.9581Z" fill="white"/>
<path d="M111.387 76.698H113.505V78.1494L113.534 78.1773C113.849 77.647 114.307 77.2004 114.851 76.8934C115.394 76.5864 116.024 76.4189 116.654 76.4189C117.77 76.4189 118.629 76.698 119.258 77.2562C119.888 77.8144 120.203 78.6518 120.203 79.7682V86.5224H117.97V80.3543C117.942 79.5728 117.77 79.0146 117.455 78.6797C117.14 78.3447 116.654 78.1494 115.995 78.1494C115.652 78.1494 115.309 78.2052 114.994 78.3447C114.707 78.4843 114.45 78.6797 114.221 78.9029C114.021 79.1541 113.849 79.4332 113.734 79.7402C113.62 80.0752 113.563 80.4101 113.563 80.745V86.5503H111.33L111.387 76.698Z" fill="white"/>
<path d="M127.215 86.8014C126.471 86.8014 125.756 86.6898 125.069 86.4107C124.468 86.1595 123.924 85.7967 123.466 85.3501C123.008 84.8757 122.693 84.3174 122.464 83.7034C122.006 82.3637 122.006 80.8845 122.464 79.5448C122.664 78.9308 123.008 78.3726 123.466 77.8981C123.924 77.4237 124.468 77.0608 125.069 76.8375C126.443 76.3073 127.988 76.3073 129.391 76.8375C129.992 77.0887 130.536 77.4516 130.993 77.8981C131.451 78.3726 131.766 78.9308 131.995 79.5448C132.224 80.2147 132.339 80.9124 132.339 81.6102C132.339 82.3079 132.224 83.0336 131.995 83.7034C131.795 84.3174 131.451 84.8757 130.993 85.3501C130.536 85.8246 129.992 86.1874 129.391 86.4386C128.675 86.6898 127.96 86.8293 127.215 86.8014ZM127.215 85.0989C127.673 85.0989 128.103 85.0152 128.503 84.7919C128.847 84.5965 129.162 84.3174 129.391 83.9825C129.62 83.6476 129.791 83.2569 129.906 82.8661C130.135 82.0288 130.135 81.1915 129.906 80.3542C129.791 79.9635 129.62 79.5727 129.391 79.2378C129.162 78.9029 128.847 78.6517 128.503 78.4563C127.702 78.0377 126.729 78.0377 125.927 78.4563C125.555 78.6517 125.269 78.9308 125.011 79.2378C124.782 79.5727 124.582 79.9635 124.496 80.3542C124.267 81.1915 124.267 82.0288 124.496 82.8661C124.611 83.2569 124.782 83.6476 125.011 83.9825C125.24 84.3174 125.555 84.5965 125.899 84.7919C126.299 84.9873 126.757 85.0989 127.215 85.0989Z" fill="white"/>
<path d="M134.199 72.9581H136.432V86.5504H134.199V72.9581Z" fill="white"/>
<path d="M143.473 86.8014C142.728 86.8014 142.013 86.6898 141.326 86.4107C140.725 86.1595 140.181 85.7967 139.723 85.3501C139.265 84.8756 138.95 84.3174 138.721 83.7034C138.492 83.0336 138.378 82.3079 138.378 81.6102C138.378 80.9124 138.492 80.2147 138.721 79.5448C138.922 78.9308 139.265 78.3726 139.723 77.8981C140.181 77.4237 140.725 77.0608 141.326 76.8375C142.728 76.3073 144.245 76.3073 145.648 76.8375C146.249 77.0887 146.793 77.4516 147.251 77.8981C147.709 78.3726 148.024 78.9308 148.253 79.5448C148.711 80.9124 148.711 82.3637 148.253 83.7034C148.052 84.3174 147.709 84.8756 147.251 85.3501C146.793 85.8246 146.249 86.1874 145.648 86.4107C144.961 86.6898 144.217 86.8014 143.473 86.8014ZM143.473 85.0989C143.931 85.0989 144.36 85.0152 144.761 84.7919C145.104 84.5965 145.419 84.3174 145.648 83.9825C145.877 83.6476 146.049 83.2569 146.163 82.8661C146.278 82.4475 146.335 82.0288 146.335 81.6102C146.335 81.1915 146.278 80.7729 146.192 80.3542C146.077 79.9635 145.906 79.5727 145.677 79.2378C145.448 78.9029 145.133 78.6517 144.789 78.4563C143.988 78.0377 143.015 78.0377 142.213 78.4563C141.87 78.6517 141.555 78.9308 141.326 79.2378C141.097 79.5727 140.897 79.9635 140.811 80.3542C140.582 81.1915 140.582 82.0288 140.811 82.8661C140.925 83.2569 141.097 83.6476 141.326 83.9825C141.555 84.3174 141.87 84.5965 142.213 84.7919C142.585 84.9873 143.043 85.0989 143.473 85.0989Z" fill="white"/>
<path d="M159.759 86.02C159.759 87.4992 159.329 88.6156 158.471 89.3413C157.612 90.0669 156.381 90.4298 154.807 90.4298C154.292 90.4298 153.777 90.3739 153.261 90.2902C152.775 90.2065 152.288 90.0111 151.859 89.7878C151.43 89.5366 151.086 89.2296 150.8 88.8389C150.514 88.4202 150.313 87.9179 150.285 87.3876H152.517C152.575 87.6667 152.689 87.9179 152.861 88.1411C153.004 88.3365 153.204 88.4761 153.433 88.5877C153.662 88.6993 153.891 88.7552 154.149 88.811C154.435 88.8389 154.693 88.8668 154.979 88.8668C155.866 88.8668 156.524 88.6435 156.954 88.2249C157.383 87.8062 157.583 87.1643 157.583 86.3549V84.8477H157.555C157.269 85.378 156.811 85.8246 156.267 86.1316C155.723 86.4386 155.122 86.5782 154.521 86.5782C153.805 86.6061 153.118 86.4665 152.46 86.1595C151.916 85.9083 151.43 85.5176 151.058 85.0431C150.685 84.5407 150.399 83.9825 150.256 83.3964C150.084 82.7545 149.999 82.0847 149.999 81.3869C149.999 80.745 150.113 80.103 150.313 79.489C150.514 78.9029 150.829 78.3726 151.201 77.926C151.601 77.4795 152.088 77.1167 152.632 76.8655C153.233 76.5864 153.863 76.4747 154.521 76.4747C155.122 76.4747 155.723 76.6143 156.267 76.8655C156.811 77.1446 157.24 77.5632 157.498 78.0935H157.526V76.7259H159.759V86.02ZM154.807 84.8198C155.666 84.8477 156.467 84.457 156.896 83.7593C157.125 83.4243 157.269 83.0336 157.354 82.6429C157.44 82.2242 157.498 81.8056 157.498 81.3869C157.498 80.9682 157.44 80.5775 157.354 80.1589C157.269 79.796 157.097 79.4332 156.868 79.0983C156.639 78.7913 156.353 78.5401 156.038 78.3726C155.666 78.1772 155.236 78.0935 154.807 78.0935C154.378 78.0935 153.948 78.1772 153.548 78.4005C153.204 78.5959 152.947 78.875 152.718 79.2099C152.489 79.5448 152.346 79.9356 152.26 80.3263C152.174 80.7171 152.117 81.1357 152.117 81.5544C152.117 81.9451 152.174 82.3637 152.26 82.7545C152.346 83.1173 152.517 83.4802 152.746 83.7872C152.947 84.0942 153.233 84.3454 153.576 84.5407C153.977 84.7361 154.406 84.8477 154.807 84.8198Z" fill="white"/>
<path d="M162.048 72.9581H164.281V75.0235H162.048V72.9581ZM162.048 76.6981H164.281V86.5224H162.048V76.6981Z" fill="white"/>
<path d="M168.431 82.1684C168.431 82.5591 168.489 82.922 168.603 83.2848C168.718 83.6197 168.889 83.9267 169.09 84.2058C169.319 84.4849 169.605 84.6803 169.948 84.8198C170.32 84.9873 170.75 85.071 171.15 85.071C171.694 85.099 172.267 84.9594 172.725 84.6524C173.154 84.3454 173.469 83.9267 173.612 83.4243H175.73C175.53 84.4291 174.929 85.3222 174.099 85.9083C173.698 86.1874 173.24 86.4107 172.753 86.5503C172.238 86.6898 171.723 86.7736 171.179 86.7736C170.463 86.7736 169.748 86.6619 169.061 86.3828C168.46 86.1316 167.945 85.7688 167.515 85.3222C167.086 84.8478 166.771 84.2896 166.571 83.6755C166.342 83.0057 166.227 82.28 166.256 81.5823C166.256 80.9124 166.371 80.2426 166.6 79.6007C166.828 78.9866 167.143 78.4284 167.573 77.954C168.46 76.9492 169.777 76.391 171.122 76.391C171.866 76.391 172.61 76.5585 173.268 76.8655C173.898 77.1725 174.413 77.619 174.843 78.1493C175.272 78.7075 175.587 79.3216 175.759 79.9914C175.959 80.6892 175.988 81.4148 175.902 82.1405L168.431 82.1684ZM173.612 80.745C173.583 80.4101 173.526 80.0751 173.383 79.7681C173.268 79.4611 173.097 79.182 172.868 78.9308C172.639 78.7075 172.381 78.5122 172.095 78.3726C171.78 78.2331 171.437 78.1493 171.065 78.1493C170.692 78.1493 170.349 78.2052 170.006 78.3447C169.691 78.4843 169.404 78.6517 169.175 78.9029C168.947 79.1541 168.746 79.4332 168.632 79.7402C168.489 80.0751 168.403 80.4101 168.403 80.7729L173.612 80.745Z" fill="white"/>
<path d="M179.222 83.3685C179.279 84.0105 179.536 84.457 179.966 84.7082C180.424 84.9594 180.968 85.0989 181.511 85.0989C181.74 85.0989 181.998 85.071 182.227 85.0431C182.485 85.0152 182.742 84.9594 182.971 84.8477C183.2 84.764 183.4 84.6245 183.544 84.457C183.715 84.2616 183.773 84.0384 183.744 83.7872C183.744 83.536 183.629 83.2848 183.429 83.0894C183.2 82.894 182.942 82.7545 182.685 82.6708C182.341 82.5591 181.998 82.4475 181.626 82.3917C181.225 82.3079 180.824 82.2242 180.424 82.1405C180.023 82.0568 179.622 81.9451 179.222 81.8056C178.85 81.6939 178.506 81.5265 178.191 81.3032C177.876 81.0799 177.619 80.8008 177.447 80.4659C177.247 80.0751 177.161 79.6565 177.161 79.2099C177.132 78.7355 177.275 78.261 177.562 77.8702C177.819 77.5074 178.163 77.2004 178.563 77.005C178.993 76.7817 179.451 76.6143 179.937 76.5305C180.395 76.4468 180.882 76.391 181.368 76.391C181.883 76.391 182.37 76.4468 182.857 76.5585C183.315 76.6701 183.744 76.8376 184.145 77.0888C184.517 77.3399 184.86 77.647 185.089 78.0377C185.347 78.4564 185.518 78.9308 185.576 79.4332H183.257C183.2 78.9866 182.942 78.5959 182.542 78.3726C182.141 78.1773 181.683 78.0935 181.225 78.0935C181.025 78.0935 180.853 78.1214 180.653 78.1214C180.452 78.1493 180.252 78.2052 180.052 78.261C179.88 78.3168 179.708 78.4284 179.565 78.568C179.422 78.7075 179.365 78.9029 179.365 79.0983C179.365 79.3495 179.451 79.5727 179.651 79.7402C179.88 79.9356 180.109 80.0472 180.395 80.1589C180.739 80.2705 181.082 80.3821 181.454 80.438C181.855 80.5217 182.256 80.6054 182.656 80.6892C183.057 80.7729 183.458 80.8845 183.858 81.0241C184.23 81.1357 184.574 81.3032 184.917 81.5265C185.232 81.7497 185.49 82.0288 185.662 82.3358C185.862 82.6987 185.948 83.1173 185.948 83.5639C185.976 84.0942 185.833 84.5966 185.547 85.0431C185.289 85.4339 184.917 85.7967 184.488 86.02C184.03 86.2712 183.544 86.4665 183.028 86.5782C182.513 86.6898 181.969 86.7456 181.454 86.7456C180.853 86.7456 180.252 86.6898 179.68 86.5224C179.164 86.4107 178.706 86.1874 178.277 85.8804C177.876 85.6013 177.562 85.2385 177.333 84.8198C177.104 84.3454 176.96 83.843 176.96 83.3127L179.222 83.3685Z" fill="white"/>
<path d="M53.0554 24.6178C52.8265 22.0222 52.3113 19.4824 51.4526 16.9984C50.8802 15.4075 50.0215 13.9283 48.8766 12.6723C47.5314 11.2489 45.9571 10.1046 44.1826 9.23937C41.7783 7.98342 39.3168 6.8391 36.7981 5.75061C34.3652 4.69003 31.8464 3.76899 29.3849 2.79214C29.2991 2.76423 29.1846 2.76423 29.0701 2.76423C28.927 2.76423 28.7553 2.79214 28.6121 2.82005C28.6121 2.79214 28.6121 2.73632 28.6121 2.70841L28.8125 2.59677C27.9252 2.28976 27.1238 1.98275 26.2937 1.75947C25.9789 1.70364 25.6354 1.75947 25.3492 1.92693C25.1775 2.03857 24.9771 2.03857 24.8054 1.98275C24.4906 1.8432 24.1471 1.75947 23.8322 1.64783L23.775 1.75947C23.8036 1.8432 23.8322 1.92693 23.8895 2.06648C23.7464 2.06648 23.6033 2.03857 23.546 2.06648C23.2026 2.51304 22.8877 2.17812 22.5729 2.06648C22.4584 2.01066 22.3725 1.87111 22.2866 1.78738L22.6301 1.50828L22.6874 1.5641C22.6301 1.64783 22.5729 1.73156 22.4584 1.92693L22.945 1.64783C22.9736 1.75947 22.9736 1.8432 23.0022 1.92693L23.1739 1.81529L23.2598 2.1223C23.3743 1.95484 23.4888 1.81529 23.5746 1.67574L22.4011 1.20126C22.2294 1.64782 22.0291 1.75947 21.5997 1.67574C21.3421 1.61992 21.0845 1.50827 20.8269 1.45245C20.5121 1.36872 20.1972 1.31291 19.8824 1.25709C19.8824 1.285 19.8824 1.3129 19.8538 1.34081L20.2545 1.50828C20.2545 1.64783 20.2831 1.75947 20.2831 1.8432C20.7411 1.92693 21.1418 1.98275 21.5425 2.09439C21.7428 2.1223 21.9432 2.23394 22.1149 2.34558C22.2866 2.56886 22.6015 2.65259 22.8877 2.59677C22.9736 2.56886 23.1739 2.65259 23.1739 2.70841C23.2598 3.12706 23.5746 3.21079 23.9467 3.2387C23.8322 3.35034 23.7178 3.40616 23.6319 3.37825C22.9163 3.15497 22.2008 2.93169 21.5138 2.70841C21.3135 2.65259 21.1131 2.62468 20.9128 2.59677L20.8842 2.73632L23.0022 3.76899L23.0594 3.57362C23.4602 3.71317 23.5174 4.21556 23.9754 4.21556L24.004 4.27137C24.0612 4.77375 24.4906 4.94122 24.8054 5.19241C24.9771 5.33196 25.2061 5.4715 25.2633 5.08076L25.6927 5.61106C25.5209 5.63897 25.3492 5.61106 25.1775 5.55524C23.7178 4.99704 22.2866 4.41092 20.7983 3.85272C19.9396 3.5178 19.081 3.2387 18.2223 2.9596C18.1078 2.90378 17.9647 2.87587 17.8216 2.87587C17.7357 2.87587 17.6499 2.9596 17.5354 2.98751C17.6212 3.07124 17.6785 3.15497 17.7643 3.21079C17.8502 3.26661 17.9647 3.18288 18.0506 3.21079C18.2223 3.2387 18.4799 3.26661 18.5658 3.37825C18.7948 3.65736 19.081 3.62944 19.3672 3.68526C19.6534 3.71317 19.9396 3.7969 20.2259 3.88063C20.5407 4.02018 20.8555 4.18765 21.1704 4.35511C21.3135 4.6063 21.4566 4.85748 21.5711 5.10867C21.7142 5.47151 21.9146 5.58315 22.1435 5.33196C22.3153 5.55524 22.4584 5.86225 22.6587 5.91807C22.8591 5.97389 22.8877 6.56 23.2312 6.19717C23.4029 6.30881 23.546 6.39254 23.6605 6.47627C23.775 6.56 23.9181 6.64373 24.0326 6.75537C21.0273 5.63896 18.0506 4.60629 14.9594 3.60153C14.9594 3.85272 14.988 4.02018 14.988 4.10391L15.6177 4.21556C15.8753 4.29929 16.0756 4.3551 16.2474 4.43883C16.3905 4.49465 16.5908 4.57838 16.6195 4.66211C16.734 4.99703 16.9343 5.02495 17.2492 5.05286C17.5926 5.08077 17.9075 5.16449 18.2509 4.82957C18.2223 5.08076 18.2223 5.16449 18.2223 5.35986L18.7947 5.1645C19.081 5.52733 19.3672 5.86225 19.6534 6.19717C19.7107 6.25299 19.7965 6.2809 19.8538 6.33672C19.9969 6.44836 20.1114 6.58791 20.2545 6.72746L20.1686 6.8391L21.0273 6.95074C21.1131 7.03447 21.1704 7.22985 21.3135 7.28567C21.5711 7.39731 21.8001 7.50894 22.0863 7.62058L23.5174 8.2067C23.5174 8.29043 23.4888 8.37415 23.4315 8.45788C23.3457 8.5137 23.2312 8.54162 23.1453 8.4858C22.2294 8.09506 21.3421 7.6764 20.4262 7.34148C17.8788 6.39254 15.3029 5.44359 12.7269 4.52256C12.4979 4.46674 12.2975 4.43883 12.0685 4.41092C12.0685 4.43883 12.0685 4.49465 12.0399 4.52256C12.2403 4.57838 12.5265 4.60629 12.5837 4.71794C12.8413 5.1645 13.1848 5.24823 13.6428 5.05286C13.6714 5.05286 13.7286 5.08076 13.8145 5.08076L13.5569 5.49941C14.1293 5.52732 14.5301 6.05762 15.0166 5.80643C15.1311 5.89016 15.2742 5.97389 15.4173 6.05762C16.2188 6.19717 16.9629 6.58791 17.5354 7.14612C17.7071 7.25776 17.8788 7.3694 18.0792 7.42522C18.1364 7.45313 18.1937 7.50895 18.2509 7.56477C18.5371 7.9276 18.9092 8.17878 19.3386 8.31833C19.5962 8.42997 19.8251 8.56952 20.14 8.73699C20.5407 8.54161 20.6266 8.59744 20.7983 9.23937C21.1131 9.18355 21.3994 9.3231 21.5711 9.57429C21.7428 9.76966 21.9718 9.93712 22.258 9.96503C22.6587 10.0208 22.7446 10.0488 22.6301 10.4953C22.1149 10.4674 21.7714 9.79757 21.2276 10.0488C21.1418 9.96503 21.0559 9.8813 20.9414 9.82548C19.9396 9.37892 18.9379 8.90445 17.9361 8.4858C17.4781 8.31834 17.0202 7.92759 16.505 8.34625C16.505 8.34625 16.4764 8.34624 16.4477 8.31833L16.6195 7.98342L15.0452 7.42522C13.8717 7.00657 12.6982 6.61582 11.4961 6.19717C11.353 6.16926 11.1813 6.19717 11.0382 6.19717C11.353 6.8391 11.8968 6.44836 12.2689 6.61582C12.0972 7.1182 12.0972 7.1182 12.6124 7.17402C12.6696 7.17402 12.6982 7.20193 12.7555 7.22984L14.3583 7.92759C14.8163 8.09506 15.2456 8.29043 15.7036 8.51371C16.3046 8.84863 16.8771 9.23937 17.4495 9.6022C17.793 9.82548 18.0792 10.0767 18.4227 10.3279C18.4227 10.3279 18.4799 10.2441 18.5371 10.1604C18.7375 10.3558 19.1668 10.3837 18.9092 10.8861L19.3672 10.4674C19.3099 10.9419 19.5675 10.6349 19.6534 10.6349C19.8251 10.9698 19.9396 11.2489 20.3117 11.3605C20.4548 11.3884 20.6552 11.4164 20.7411 11.5001C20.8269 11.6396 20.8555 11.7792 20.7983 11.9466C20.7411 12.0583 20.6266 12.142 20.4262 11.9746C20.14 11.7513 19.7965 11.6117 19.4531 11.4722C19.2813 11.4443 19.1096 11.4443 18.9665 11.4722C18.852 11.0814 16.5908 10.0488 16.0184 10.1883C15.9039 9.76966 15.5891 9.76966 15.2456 9.74175C15.1597 9.74175 14.988 9.76966 14.988 9.74175C14.8163 9.37892 14.4442 9.46265 14.158 9.40683C13.9004 10.2999 14.759 10.2441 15.1597 10.5511L15.3029 10.4116C15.6463 10.6907 15.7894 11.0535 16.3332 11.1373C16.7912 11.221 17.1919 11.6396 17.6499 11.835C18.1078 12.0304 18.3368 12.3653 18.6803 12.6165C19.2813 13.0351 19.2527 13.6492 18.623 14.012C18.623 13.9003 18.623 13.7887 18.623 13.7608C18.4513 13.705 18.2795 13.6213 18.1078 13.5375C17.5926 13.2305 17.2778 13.2026 16.9629 13.5096C17.1919 13.091 16.8771 13.0072 16.6481 12.8956L15.818 12.4769L14.0721 11.6955C14.0435 11.7234 14.0435 11.7792 14.0149 11.8071L15.5604 12.5048C15.5318 12.5607 15.5318 12.6165 15.5032 12.6723C14.2438 12.5886 13.0989 11.9746 11.8396 11.8071L13.1276 12.5328L8.86287 11.6117L8.83425 11.7234L9.34944 12.0583C8.80562 12.0025 8.2618 11.8908 7.71798 11.7513C7.20278 11.6117 6.68758 11.5838 6.14376 11.6675C6.37274 11.835 6.60172 12.0025 6.85932 12.1141C7.14554 12.2257 7.43176 12.2816 7.71798 12.3932C8.14731 12.5607 8.46216 12.8398 8.94873 12.8956C9.26358 12.9793 9.57842 13.091 9.83602 13.2863C9.97913 13.398 10.1222 13.5375 10.2367 13.6771L10.4657 13.398L13.9862 15.1563L13.5855 15.5191C13.3565 15.4075 13.1276 15.2959 12.8986 15.2121C12.4979 15.0447 12.0399 15.1842 11.8682 15.575C11.7537 15.7424 11.6106 15.9378 11.4675 16.1052L11.4102 16.0494C11.5247 15.8261 11.6106 15.6029 11.7251 15.2959C11.5534 15.4075 11.4389 15.5191 11.3816 15.5191C10.9237 15.4075 10.9237 15.7982 10.7805 16.0215L11.4961 16.4123L10.6374 17.7799C10.294 17.8078 9.86464 17.5566 9.60704 18.059L11.0095 18.6451C10.6947 18.98 10.1795 19.1195 9.97913 18.9242C9.77878 18.7288 9.66429 18.6172 9.40669 18.8125C9.20634 18.9242 8.97736 19.0079 8.74838 19.0916L9.2922 19.3428L9.72153 19.1195C9.86464 19.7894 9.83602 19.8173 9.23496 19.6498C8.92011 19.5661 8.57665 19.5103 8.2618 19.4266C8.09007 19.4266 7.91834 19.3986 7.74661 19.3707C7.3459 19.2312 6.94518 19.0079 6.51585 18.8683C6.14376 18.7288 5.74306 18.5334 5.39959 18.5892C4.85577 18.6451 4.74128 18.3381 4.56955 18.031C4.48368 17.8915 4.42644 17.724 4.39782 17.5566C4.28333 16.9984 3.88262 16.4402 4.25471 15.8261C4.28333 15.7703 4.28333 15.6587 4.25471 15.6308C3.91124 15.4912 3.93986 15.1842 3.85399 14.9051C3.82537 14.8493 3.68226 14.7935 3.5964 14.7656C3.53915 14.7656 3.45329 14.8493 3.45329 14.9051C3.45329 15.1284 3.48191 15.3238 3.51053 15.5191C3.36742 15.547 3.25293 15.7145 3.25293 15.8541C3.28155 16.9984 3.19568 18.1985 3.33879 19.3707C3.39604 19.8173 3.53915 20.2359 3.82537 20.5988C3.79675 20.7662 3.96848 20.9337 4.05435 21.1012C4.45506 21.8268 4.97026 22.3292 5.88617 22.3292C6.11514 22.3571 6.37274 22.4408 6.5731 22.5525C6.51585 24.5899 6.45861 26.5994 6.42999 28.6369L6.40137 30.3952V32.1535C6.40137 33.3258 6.40137 34.498 6.40137 35.6702L6.42999 39.1869L6.45861 40.9452V42.7035C6.45861 43.8758 6.45861 45.048 6.42999 46.2202C6.42999 47.3925 6.40136 48.5647 6.37274 49.7369C6.3155 52.0813 6.28688 54.4258 6.25826 56.7702L6.17239 60.2869C6.17239 61.4591 6.17239 62.6314 6.14376 63.8036C6.14376 68.4646 6.17239 73.1255 6.25826 77.7865C6.25826 77.8144 6.25826 77.8144 6.25826 77.8423H6.20101C6.20101 77.4516 6.22963 77.0609 6.22963 76.6422L5.94341 80.2147L6.08652 80.2426V80.2705H6.11514C6.14377 80.1589 6.14377 80.0751 6.17239 79.9635C6.42999 78.9308 6.65896 77.9261 6.91656 76.8934L6.77345 76.8655L6.60172 77.2004H6.5731L6.60172 76.9771C7.83247 72.0929 8.97736 67.2086 10.0936 62.2964C10.3798 60.9847 10.6947 59.7008 10.9809 58.389L11.8396 54.4816C12.412 51.886 12.9845 49.2624 13.5283 46.6389C13.8145 45.3271 14.0721 44.0153 14.3869 42.7035C14.7018 41.3918 14.9594 40.08 15.2742 38.7961L15.7322 36.8424L16.1901 34.8887L17.1347 30.9813C17.4495 29.6695 17.7357 28.3857 18.022 27.0739L18.4513 25.1202L18.8806 23.1665C19.4244 20.6267 19.9683 18.0869 20.4548 15.547C20.8269 15.2959 21.199 15.0447 21.5711 14.7656C22.1435 14.319 22.7446 13.9004 23.3743 13.5096C24.6337 12.8119 25.9503 12.1978 27.2383 11.5838C27.4673 11.5001 27.6962 11.4164 27.9252 11.3605C27.8107 11.4722 27.6676 11.5559 27.4959 11.6117C27.1238 11.7234 27.0665 11.8908 27.3241 12.1699C27.7249 12.6723 28.1256 13.1747 28.4976 13.705C28.8697 14.2353 29.2132 14.7377 29.5567 15.2679C29.7284 15.547 30.0146 15.8261 30.0432 16.1332C30.0719 16.6634 30.4726 16.9426 30.7302 17.2775C31.0164 17.6403 31.2454 18.059 31.3885 18.5055C31.5316 18.8404 31.7033 19.1754 31.8751 19.4824C31.9037 19.5382 32.0468 19.5382 32.0468 19.5382C32.1327 19.7615 32.2185 19.9289 32.2758 20.0964C32.3903 20.543 32.562 20.9895 32.791 21.4082C33.0772 21.8547 33.4779 22.1896 33.5924 22.7478C33.5924 22.8316 33.7927 22.8595 33.9072 22.9432C33.9072 23.0828 33.8786 23.2502 33.85 23.3898C33.6496 23.7805 33.9931 23.9759 34.1935 24.1154L34.2221 24.1434C33.3062 26.0133 32.4189 27.8833 31.5316 29.7812L30.7874 31.4279L30.0146 33.1304C29.4994 34.2468 28.9842 35.3911 28.469 36.5354L26.9807 39.9405L26.2365 41.643L25.4923 43.3455C24.9771 44.4898 24.4619 45.6062 23.9467 46.7226C23.4315 47.839 22.8877 48.9833 22.3725 50.0997C21.3135 52.3325 20.2545 54.5932 19.2241 56.854L17.6785 60.259C17.1633 61.3754 16.6481 62.5197 16.1329 63.6361C14.1007 68.1575 12.0685 72.7069 10.1509 77.2841L10.1795 77.312C12.3548 72.8464 14.4442 68.3529 16.5336 63.8315C17.0488 62.7151 17.564 61.5708 18.0792 60.4264L19.5962 57.0214C20.6266 54.7607 21.6283 52.4721 22.6015 50.2114C23.1167 49.0671 23.6033 47.9227 24.0898 46.8063C24.5764 45.6899 25.1202 44.5456 25.6354 43.4013L26.4369 41.7267L27.2383 40.0521L28.8411 36.675C29.3563 35.5586 29.8715 34.4143 30.3867 33.2979L31.1595 31.5953L31.9037 29.8928C32.7337 27.9949 33.5638 26.0971 34.3652 24.1992C34.5655 24.4224 34.7373 24.6736 34.7945 24.9807C34.8518 25.176 34.8518 25.3993 34.8804 25.5947C34.5942 25.9854 34.8518 26.4041 35.5387 26.5715C35.5673 26.7111 35.5673 26.8227 35.5959 26.9623L35.7391 26.9902L36.7981 24.0596L36.9412 24.1154C36.5977 25.3993 35.8249 26.5715 35.7391 28.0508L36.2542 27.4926C36.2542 27.6879 36.1684 27.8833 36.0825 28.0508C36.0539 28.1066 36.0253 28.1624 35.968 28.2182C35.739 28.5531 35.7677 28.6927 36.197 28.916C36.9126 27.8275 37.6281 26.7669 38.3437 25.6784L38.4582 25.7342C38.4295 25.818 38.3723 25.9017 38.3437 25.9854C37.8285 26.7948 37.3419 27.6042 36.7695 28.3857C36.3974 28.916 36.5118 29.3625 36.8267 29.837C36.9412 30.0882 37.0557 30.3394 37.1129 30.6185L36.9984 30.6743L36.8267 30.5068C36.7122 30.9534 36.9698 31.4 37.4278 31.5395C37.4564 31.5395 37.4564 31.5395 37.485 31.5395C37.5422 31.7907 37.5995 32.0419 37.6567 32.321L37.8857 32.1256L37.9716 32.1815L37.7426 32.8234L38.1719 33.8561L38.315 33.8281C39.0306 32.4047 39.7175 30.9813 40.4331 29.5579L40.5189 29.6137L38.6871 33.4095C39.832 32.4326 40.2041 31.0371 40.8338 29.7812C40.8052 30.0324 40.7479 30.3115 40.6907 30.5627C40.1469 31.707 39.603 32.8234 39.0306 33.9398C38.6871 34.6375 38.6299 34.8887 38.9161 35.6423L40.2327 34.3584C40.1755 34.5538 40.0324 34.7213 39.9465 34.8887C39.8893 35.0841 39.8606 35.2795 39.8034 35.5028C39.7461 35.7539 39.6603 36.0051 39.5458 36.2563C39.3741 36.4796 39.4313 36.7866 39.6317 36.982C39.7175 37.2053 39.832 37.4285 39.9179 37.6797L38.4582 39.6614L36.5405 42.2849L32.6765 47.532C30.1005 51.0208 27.5531 54.5374 24.9771 58.0541L21.1704 63.3291L17.3923 68.5204L13.5855 73.8233L11.6965 76.4747L11.0095 77.4516L13.3279 73.1535L14.988 70.1113C15.5318 69.1065 16.1043 68.0738 16.6481 67.0691C17.7643 65.0316 18.9092 63.0221 20.0255 61.0126L23.4315 54.9561L25.1202 51.9139L26.7803 48.8717L30.1005 42.7873C32.3044 38.7124 34.5083 34.6375 36.6836 30.5627L36.655 30.5348C34.3652 34.5538 32.0754 38.6008 29.8143 42.6477L26.4369 48.7321L24.7482 51.7743L23.0881 54.8165L19.7965 60.9288C18.7089 62.9663 17.5926 65.0037 16.4764 67.0411C15.9325 68.0459 15.3601 69.0786 14.7876 70.0834L13.0989 73.1255L9.72153 79.182L9.69291 79.2379C9.72153 79.1262 9.75015 79.0425 9.8074 78.9308C10.0364 78.4564 10.1509 77.8982 10.1222 77.3679L9.43531 79.2658L9.52118 79.2937C9.49255 79.3774 9.46393 79.489 9.46393 79.5728C9.2922 79.5728 9.12047 79.6844 9.12047 79.8798C9.12047 79.9077 9.12047 79.9356 9.12047 79.9356C9.06322 79.9914 9.0346 80.1031 9.06322 80.1868L9.17771 80.4938L10.0364 80.5496C9.97913 80.4101 9.92189 80.2705 9.86464 80.131C10.0078 80.131 10.1509 80.0472 10.2081 79.9356L10.3798 79.489C10.4371 79.3495 10.3798 79.2099 10.2367 79.1262C10.3798 78.9308 10.5516 78.7634 10.6947 78.5959L10.5802 78.5122L10.6661 78.3726L11.124 78.2889C11.124 78.2052 11.124 78.0935 11.124 78.0098C11.1526 77.9261 11.1813 77.8144 11.2099 77.7307L11.1526 77.7028L11.8682 76.7259L13.7859 74.1024L17.6212 68.8553L21.4566 63.6082L25.2633 58.3332C27.8107 54.8165 30.3295 51.2999 32.8482 47.7553L36.6263 42.4524L38.5154 39.8009L39.9179 37.8193L40.6334 39.4939H40.7765C40.9483 39.2148 41.1486 38.9357 41.3204 38.6287C41.7497 37.8751 41.7497 37.8751 42.6656 37.8193L41.8642 38.545L41.8069 38.4612C41.9214 38.3217 42.0359 38.1542 42.1218 38.0147L42.0073 37.9309L41.1486 39.3264L41.3204 39.5218L40.891 39.6055C40.9197 39.7451 40.9483 39.8846 40.9769 39.9963C41.0628 40.2196 41.1773 40.4708 41.2917 40.694C41.4635 40.9731 41.6352 41.2243 41.8642 41.5871C41.9787 41.4476 42.0645 41.2801 42.1504 41.1127C42.3794 40.5824 42.6084 40.0521 42.8087 39.5218C42.9804 39.1032 43.0949 38.6566 43.238 38.2379C43.3239 37.9867 43.4384 37.9309 43.6674 38.1542C43.8391 38.2659 44.0108 38.3496 44.2112 38.3775C44.4974 38.4333 44.7836 38.4612 45.0699 38.517C45.0699 38.6008 45.0412 38.6845 45.0412 38.8241L45.814 38.2938L45.8999 38.4054L44.2684 39.7172L44.2398 39.6614C44.4688 39.3543 44.6692 39.0473 44.8981 38.7682L43.5529 38.4612C43.0377 39.0753 42.8946 39.8288 42.7515 40.6382C43.238 39.9684 43.7532 40.2196 44.2684 40.4987C43.9822 40.5824 43.6674 40.6382 43.3812 40.6661C42.7801 40.6382 42.5225 41.0569 42.2077 41.3918C42.1504 41.5034 42.1504 41.6151 42.2077 41.6988C42.2935 41.7546 42.408 41.7825 42.5225 41.7546C42.7228 41.6709 42.8946 41.5592 43.0949 41.4476L43.1522 41.5313L42.4939 42.0895L42.6656 42.3686C42.9232 42.7873 43.2094 43.2338 43.467 43.6525C43.3525 43.9874 43.6388 44.0712 43.8677 44.127C44.6978 44.3782 45.5278 44.6014 46.272 44.7968L47.4455 43.3455C47.6459 43.3176 47.8176 43.3176 48.0179 43.3455C48.5045 43.485 48.9911 43.6804 49.5063 43.8479C49.1056 44.2386 48.7335 44.5735 48.39 44.9085C48.2469 45.048 48.0466 45.2155 48.39 45.4667L49.3059 44.2944C49.4491 44.2944 49.7925 44.5735 49.7353 44.1828C49.678 43.7921 49.907 43.7083 50.1074 43.5409C50.2218 43.4571 50.3363 43.3734 50.4508 43.2617C50.737 42.9268 50.9946 42.5919 51.2522 42.257C51.3381 42.1454 51.424 42.0337 51.4812 41.8942C51.7102 41.336 51.9392 40.8057 52.1395 40.2475C52.1968 40.08 52.254 39.8846 52.2826 39.7172C52.3971 39.2148 52.5116 38.7403 52.5975 38.2379C52.6261 38.0705 52.712 37.903 52.7406 37.7356C52.8551 37.0936 52.9696 36.4517 53.0268 35.8098C53.1413 34.5259 53.2272 33.242 53.2844 31.9582C53.4561 29.4184 53.3417 26.9902 53.0554 24.6178ZM4.48368 18.5613C4.65541 19.0358 4.85577 19.4824 5.08475 19.9289C4.79852 19.5103 4.59817 19.0358 4.48368 18.5613ZM16.276 13.5654L16.3905 13.9003L16.6195 13.6212C16.6481 13.6492 16.6767 13.6771 16.6767 13.6771C16.5908 13.8724 16.7053 14.0957 16.8771 14.1795C17.0774 14.2911 17.2205 14.4865 17.3064 14.6818C17.335 14.8214 17.2778 14.9888 17.1919 15.1005C17.106 15.1842 16.9057 15.1563 16.7626 15.1842C16.734 15.0726 16.734 14.9609 16.7053 14.9051L15.4746 14.4865L16.276 13.5654ZM16.6481 16.0773C16.3046 16.2448 15.9039 16.189 15.5891 15.9936C15.5032 15.9378 15.5032 15.6866 15.4746 15.575L16.6481 16.0773ZM15.6749 13.5654C15.7322 13.6213 15.818 13.6771 15.8753 13.7608C15.7322 13.9283 15.5891 14.0678 15.446 14.2353L15.3601 14.1515C15.4173 13.9562 15.5318 13.7887 15.6749 13.5654ZM14.8449 15.3238C14.9594 15.4633 15.0739 15.6308 15.1884 15.7982C15.2456 15.882 15.2456 15.9936 15.1884 16.1052C15.1311 16.189 14.9594 16.2169 14.8735 16.2448C14.5014 15.8261 14.5014 15.7145 14.8449 15.3238ZM14.8449 16.2448L14.4156 16.9146C14.2438 16.5518 14.3869 16.3285 14.8449 16.2448ZM14.5587 15.24C14.4156 15.6866 14.3011 16.0773 14.1866 16.4681L13.9862 16.3843C14.3583 16.1052 13.8717 15.4912 14.5587 15.24ZM13.6428 15.547C13.5569 15.8541 13.4997 16.189 13.4138 16.496C13.3852 16.5518 13.2134 16.5518 13.0989 16.6076L13.0131 16.496L13.6428 15.547ZM12.1258 17.11C12.183 17.0263 12.3834 17.0263 12.5265 16.9984C12.6696 16.9984 12.7841 16.9705 12.9272 16.9984L13.9576 17.8078L13.3279 17.9473C13.3279 17.3612 13.2134 17.2775 12.6696 17.5287C12.6124 17.5566 12.5837 17.5845 12.5265 17.5845C12.3548 17.6124 12.2117 17.6124 12.0399 17.6124C12.0399 17.417 12.0685 17.2496 12.1258 17.11ZM12.0113 19.3149C11.7537 19.2312 11.4389 19.5382 11.2671 19.1474C11.2385 19.1195 11.0382 19.1474 10.895 19.1474C11.124 18.8683 11.5247 18.8404 11.8109 19.0637C11.9254 19.1195 11.9827 19.2033 12.0113 19.3149ZM6.40137 77.2283C6.54448 72.7627 6.60172 68.325 6.65896 63.8594C6.65896 62.6872 6.65896 61.5149 6.65896 60.3427V56.8261C6.65896 54.4816 6.63034 52.1372 6.60172 49.7927C6.60172 48.6205 6.5731 47.4483 6.5731 46.2761C6.5731 45.1038 6.5731 43.9316 6.60172 42.7594L6.63034 41.001L6.65896 39.2427L6.74483 35.726C6.77345 34.5538 6.77345 33.3816 6.77345 32.2094V30.451V28.6927C6.77345 26.6832 6.74483 24.6736 6.68759 22.6641L6.74483 22.692C6.85932 22.7199 7.00243 22.7758 7.11692 22.8316C7.40314 22.9153 7.68936 22.999 7.97558 23.0828C8.40492 23.2223 8.80562 23.334 9.23496 23.4735C9.69291 23.6131 10.1222 23.7526 10.5516 23.948C11.0382 24.1713 11.353 24.1434 11.6392 23.7526C11.7537 23.7526 11.8682 23.6689 11.9254 23.5852L12.0399 23.4177C12.5837 23.1107 13.0417 22.692 13.3852 22.1617C13.1276 23.8084 12.8986 25.4551 12.6982 27.1018L12.4406 28.9997L12.183 30.8976C12.0113 32.1535 11.8682 33.4374 11.7251 34.6934L11.2957 38.517L11.0954 40.4149L10.8664 42.3128C10.7233 43.5688 10.5516 44.8526 10.3798 46.1086C10.2081 47.3645 10.0364 48.6484 9.86464 49.9044C9.52118 52.4163 9.17771 54.9561 8.83425 57.468L8.31905 61.2638C8.14732 62.5197 8.00421 63.8036 7.83247 65.0595C7.31727 69.1065 6.85932 73.1814 6.40137 77.2283ZM18.5944 23.0828L18.1364 25.0365L17.6785 26.9902C17.3923 28.302 17.0774 29.5858 16.7912 30.8976L15.9612 34.8329L15.5604 36.7866L15.1311 38.7403C14.8449 40.0521 14.5587 41.336 14.2438 42.6477C13.9576 43.9595 13.6141 45.2434 13.3279 46.5552C12.6982 49.1508 12.0972 51.7743 11.4675 54.37L10.5516 58.2774C10.2367 59.5892 9.95051 60.873 9.66429 62.1848C8.69113 66.6225 7.71798 71.0602 6.80207 75.5258C7.28865 72.0371 7.77522 68.5762 8.20456 65.0874C8.37629 63.8315 8.5194 62.5476 8.69114 61.2917L9.14909 57.4959C9.46393 54.9561 9.75015 52.4163 10.0364 49.8764C10.1795 48.6205 10.3226 47.3366 10.4657 46.0807C10.6088 44.8247 10.7806 43.5409 10.9523 42.2849L11.2099 40.387L11.4675 38.4891L12.0113 34.6934C12.183 33.4374 12.3548 32.1535 12.4979 30.8976L12.7269 28.9997L12.9558 27.1018C13.1562 25.3156 13.3565 23.5293 13.5569 21.7431L13.6141 21.6035C13.6428 21.5756 13.6428 21.5198 13.6428 21.4919C14.5873 20.5988 15.5032 19.6777 16.4764 18.8125C17.4495 17.9473 18.3654 17.1379 19.3672 16.3564C19.7107 16.0773 20.0541 15.8261 20.4262 15.575C19.7965 18.059 19.1955 20.5709 18.5944 23.0828ZM23.8609 8.73699C23.8322 8.73699 23.775 8.59744 23.7464 8.54162L24.2043 8.4858C24.2043 8.54162 24.233 8.59744 24.233 8.65326C24.1185 8.70908 24.004 8.73699 23.8609 8.73699ZM26.5227 2.26185C27.0665 2.45722 27.6104 2.65259 28.1256 2.87587C28.2401 2.90378 28.2973 3.04333 28.3832 3.12706L28.3259 3.2387C28.1828 3.18288 28.0397 3.15497 27.8966 3.09915C27.41 2.93169 26.8948 2.76423 26.4369 2.56886C26.351 2.54095 26.3224 2.42931 26.2651 2.34558C26.3224 2.34558 26.4369 2.23394 26.5227 2.26185ZM25.3206 4.07601C25.1489 3.99228 24.9485 3.93645 24.7768 3.85272C24.7481 3.85272 24.7482 3.79691 24.7482 3.79691L24.7768 3.65736C24.9771 3.68527 25.1775 3.74108 25.3778 3.76899C25.5782 3.7969 25.7785 3.79691 25.9789 3.79691C25.893 4.15974 25.7213 4.24347 25.3206 4.07601ZM26.122 7.70432C25.893 7.62059 25.6927 7.53686 25.4637 7.42522C25.4637 7.39731 25.4637 7.34148 25.4637 7.31357C25.7213 7.34148 25.9503 7.3694 26.2079 7.42522C26.2651 7.45313 26.3224 7.56476 26.3796 7.64849C26.3224 7.64849 26.2079 7.70432 26.122 7.70432ZM25.2633 3.01542C25.6068 2.62468 26.1506 2.76423 26.5227 3.32243L25.2633 3.01542ZM27.0379 6.30881L26.6086 6.05762L26.6372 5.97389L27.3241 5.89016C27.2097 6.02971 27.1238 6.14135 27.0379 6.30881ZM28.1828 3.79691C28.2114 3.79691 28.2114 3.90855 28.2114 3.93646C28.2114 3.96437 28.1256 4.04809 28.0969 4.02018C27.8966 3.96436 27.6962 3.88064 27.41 3.79691C27.7821 3.40616 27.9538 3.74109 28.1828 3.79691ZM27.9538 6.67164C28.24 6.50418 28.2973 6.50418 28.7266 6.97865L27.9538 6.67164ZM28.4976 11.2489C28.4976 11.221 28.469 11.1931 28.469 11.1652L29.6139 10.7186C29.6139 10.7465 29.6425 10.7744 29.6712 10.8302L28.4976 11.2489ZM29.6139 3.68526L29.7284 3.51781L30.3008 3.90854L30.1864 4.04809L29.6139 3.68526ZM30.8733 6.19717C30.816 6.25299 30.7016 6.36463 30.6157 6.33672C30.444 6.30881 30.2722 6.25299 30.1291 6.16926C30.2722 6.08553 30.4153 6.02971 30.5584 5.97389C30.6443 5.94598 30.7302 5.97389 30.816 6.0018C30.8733 6.08553 30.8733 6.14135 30.8733 6.19717ZM39.3454 34.805C39.2596 34.8887 39.1451 34.9166 39.0306 34.9166C38.9734 34.8608 38.9161 34.7492 38.9447 34.6654C38.9733 34.5817 39.1165 34.5538 39.2882 34.4701C39.3168 34.6375 39.4027 34.7771 39.3454 34.805ZM36.9412 9.23937C37.1702 9.21146 37.4278 9.18355 37.6854 9.18355C38.6871 9.23937 39.6603 9.26728 40.6621 9.35101C40.8338 9.37892 40.9769 9.43474 41.12 9.51847L36.9412 9.23937ZM40.4331 37.0099L40.3472 37.1215L39.6889 36.9262L39.8606 36.675C39.9179 36.7308 39.9465 36.8145 40.0037 36.8424C40.1755 36.8983 40.29 36.9262 40.4331 37.0099C40.4331 36.982 40.4331 36.982 40.4331 37.0099ZM40.6048 34.1352L40.4903 34.0235L41.3204 33.1304L41.4349 33.242L40.6048 34.1352ZM40.7479 31.1767L40.6621 31.1209L41.4349 30.144L41.5207 30.1998L40.7479 31.1767ZM42.2649 37.5402L42.1504 37.4844C42.5797 36.675 43.0663 35.8935 43.6388 35.1399C43.1808 35.9493 42.7228 36.7587 42.2649 37.5402ZM43.2667 37.1774L43.2094 37.1215L44.0681 36.2005L44.1826 36.3121L43.2667 37.1774ZM43.7532 34.9725C44.0681 34.4143 44.3829 33.8561 44.6978 33.2699L44.8409 33.3537L43.7532 34.9725ZM41.12 9.54638C41.2059 9.51847 41.3204 9.43474 41.4062 9.46265C43.5243 9.8813 45.6137 10.3558 47.3596 11.6396C47.4169 11.6675 47.4741 11.7234 47.5027 11.7792C47.5027 11.7792 47.5027 11.835 47.5314 11.9187C45.6137 10.4953 43.4098 9.8813 41.12 9.54638ZM46.5582 41.1685L45.6423 41.0569C45.814 40.7778 45.8427 40.7778 46.5582 41.1685ZM45.5278 40.7219L45.5851 40.8615L44.4974 41.2522C44.4688 41.1964 44.4688 41.1685 44.4402 41.1127C44.8123 41.029 45.0699 40.5824 45.5278 40.7219ZM47.102 43.4013C46.8158 43.82 46.4151 43.82 45.9858 43.7362C45.6996 43.6246 45.4133 43.5688 45.0985 43.5688C44.5833 43.6525 44.0395 43.6525 43.5243 43.5129C43.4384 43.178 43.3812 42.871 43.2667 42.5361C43.1808 42.2849 43.0663 42.0616 42.9518 41.7825C43.3525 41.6151 43.6388 41.8383 43.9536 41.9221C45.0412 42.257 46.1289 42.6198 47.2165 42.9827C47.331 43.0385 47.4169 43.1222 47.5027 43.2059C47.3883 43.2618 47.1879 43.2897 47.102 43.4013ZM47.2738 41.5592L47.2451 41.3639L48.0752 41.2243C48.0752 41.2801 48.1038 41.336 48.1038 41.3918L47.2738 41.5592ZM48.9339 41.9779C48.9052 41.95 48.7907 41.95 48.7335 41.95L47.9035 41.8104L48.619 41.1964L48.7049 41.2522L48.5331 41.6988C48.7621 41.643 49.0197 41.4755 49.1628 41.5313C49.5922 41.7267 49.9929 41.9779 50.3077 42.2849C49.8784 42.1733 49.3346 42.3965 48.9339 41.9779Z" fill="white"/>
<path d="M8.00406 4.18764C8.46202 4.076 8.66237 4.29929 8.71962 4.63421L10.0362 3.57362L9.69277 3.2387C9.75002 3.15497 9.83588 3.09915 9.92175 3.07124C10.2366 2.9596 10.3225 3.18288 10.3797 3.46198L11.7536 2.4293L11.1811 2.1223L11.5818 1.95484L12.4119 2.4293C12.4691 2.37348 12.5264 2.28976 12.5836 2.23394C12.8985 1.81529 13.385 1.5641 13.9002 1.53619C14.3296 1.5641 14.5585 1.34082 14.8448 1.14545C15.2168 0.838435 15.732 0.782613 16.1614 0.977984C16.2759 1.00589 16.3903 0.97798 16.4762 0.92216C16.9628 0.419778 17.5066 0.475599 18.1077 0.643059C18.2794 0.698879 18.4511 0.670974 18.6229 0.587244C18.995 0.308143 19.5102 0.280228 19.9395 0.503509C20.3688 0.754699 20.7695 0.615149 21.1989 0.503509C20.655 0.391868 20.1112 0.252321 19.596 0.140681C19.4815 0.112771 19.367 0.0848592 19.2239 0.112769C18.7087 0.28023 18.2222 0.0848626 17.7356 0.0290424C17.5066 -0.0267777 17.249 0.00112723 17.02 0.0848575C16.648 0.308138 16.3045 0.224406 15.9324 0.196496C15.6748 0.168586 15.4458 0.196503 15.2168 0.308143C14.8448 0.559334 14.3868 0.643057 13.9575 0.615147C13.6712 0.615147 13.385 0.726789 13.1561 0.92216C12.8412 1.20126 12.5836 1.42454 12.1257 1.25708C12.0112 1.22917 11.8681 1.28499 11.7822 1.36872C11.5246 1.592 11.267 1.84319 11.0094 2.06648C10.9235 2.15021 10.809 2.26185 10.7518 2.26185C10.0076 2.15021 9.66415 2.65259 9.29206 3.15497C9.20619 3.26661 9.12033 3.43407 9.03446 3.43407C8.46202 3.46198 8.14718 3.82481 7.80371 4.18764C7.86096 4.15973 7.94682 4.21555 8.00406 4.18764Z" fill="white"/>
<path d="M6.2868 13.9003L6.31543 13.7887L6.02921 13.9282C5.85747 13.8166 5.71436 13.6491 5.62849 13.6771C5.31365 13.8166 5.02743 13.9841 4.74121 14.1515C4.76983 14.1794 4.76983 14.2353 4.79845 14.2632C4.91294 14.2353 4.99881 14.2073 5.08468 14.1515C5.59987 13.9562 5.77161 14.0957 5.74299 14.5981C5.71436 14.8772 5.91472 14.8772 6.08645 14.8214C6.37267 14.7376 6.63027 14.5981 6.83063 14.5144C6.97374 14.626 7.11685 14.7376 7.25996 14.8493C7.48894 14.9609 7.74653 15.0446 8.09 15.1842L7.34582 15.7982C7.68929 15.7982 7.88964 16.189 8.23311 15.9099C8.43346 15.7145 8.43346 15.4354 8.23311 15.24C8.20449 15.2121 8.17586 15.2121 8.14724 15.1842L8.57657 14.6539L6.2868 13.9003Z" fill="white"/>
<path d="M7.3459 16.7751C7.3459 16.7193 7.31728 16.6355 7.28866 16.5518L7.20279 16.6634L6.3155 16.1052C6.02928 16.4122 5.71444 16.189 5.54271 16.0215C5.28511 15.7703 5.08475 15.854 4.79853 15.9099C4.76991 16.1331 4.94164 16.3564 5.17062 16.3843C5.19924 16.3843 5.22786 16.3843 5.25649 16.3843C5.62857 16.3564 5.80031 16.5797 6.08653 16.6913C6.25826 16.7751 6.42999 16.9146 6.60173 16.9984C7.17417 17.2216 7.77523 17.417 8.40492 17.6403L8.74839 17.1658C8.20457 16.9146 8.69114 16.6076 8.66252 16.2727C8.54803 16.5518 8.43354 16.7472 8.34767 16.9425L7.3459 16.7751Z" fill="white"/>
<path d="M11.4387 8.84866C11.5246 8.87657 11.6963 8.84866 11.6963 8.87657C11.8394 9.35104 12.2974 9.21149 12.6122 9.29522C12.927 9.35104 13.2705 9.35105 13.5854 9.35105L13.614 9.12776C13.4422 9.09985 13.2419 8.98821 13.1274 9.04403C12.8984 9.15567 12.927 9.18359 12.8412 8.96031C12.8126 8.87658 12.7553 8.82075 12.6981 8.79284C12.1543 8.56956 11.6104 8.34628 11.0666 8.17882C10.9521 8.15091 10.809 8.20673 10.7231 8.31837C10.6945 8.43001 10.7231 8.54165 10.7804 8.65329C11.0094 8.73702 11.2383 8.79284 11.4387 8.84866Z" fill="white"/>
<path d="M8.34753 5.02496L7.74647 4.82958C7.74647 4.57839 7.77509 4.35511 7.77509 4.15974C7.6606 4.55049 7.37438 4.88541 7.00229 5.02496C6.71607 5.16451 6.48709 5.44361 6.22949 5.6948L7.25989 5.9739L8.34753 5.02496Z" fill="white"/>
<path d="M5.94331 7.56476C6.20091 7.31357 6.42989 7.06237 6.68749 6.75536L6.14366 6.50417C6.14366 6.39253 6.14366 6.25298 6.14366 6.11343L4.99878 7.28566C5.19913 7.3973 5.39949 7.48103 5.59985 7.56476C5.71433 7.64849 5.82882 7.62058 5.94331 7.56476Z" fill="white"/>
<path d="M8.06126 10.1046L11.3814 10.8023C11.3814 10.7744 11.3814 10.7744 11.4101 10.7465L7.94678 9.54636C7.9754 9.79755 8.00402 9.96501 8.06126 10.1046Z" fill="white"/>
<path d="M5.11341 9.15565C5.22789 9.0161 5.34238 8.87655 5.45687 8.737L5.19927 8.31835L5.05616 8.4579L4.91305 7.92761L4.08301 9.21148C4.28336 9.21148 4.48372 9.18357 4.56958 9.23939C4.82718 9.43476 4.94167 9.40684 5.11341 9.15565Z" fill="white"/>
<path d="M3.59641 12.6444L3.42468 12.3653C3.36744 12.9235 3.36744 13.3421 3.82539 13.6771C4.16886 13.1468 3.9685 12.5607 4.02575 12.0304L3.59641 12.6444Z" fill="white"/>
<path d="M9.8933 16.8309C10.065 16.8588 10.2654 16.8588 10.4371 16.8309C10.5802 16.7751 10.7806 16.5797 10.752 16.4402C10.6947 16.1611 10.5802 15.882 10.4657 15.6029L10.2368 15.7704L10.4657 15.9378L9.77881 16.7472L9.8933 16.8309Z" fill="white"/>
<path d="M47.2164 44.6572C47.1878 44.5456 47.1592 44.4619 47.1306 44.4061L46.6726 44.6572V44.7689C46.9588 44.8247 47.2451 44.9084 47.5027 44.9643C47.9606 45.048 47.9606 45.048 47.932 44.5177L47.2164 44.6572Z" fill="white"/>
<path d="M14.759 3.40616C14.0721 3.12705 13.3279 2.90378 12.641 2.65259L12.5837 2.79214C13.0131 2.93169 13.471 3.09915 13.9004 3.2387C14.2724 3.37825 14.7018 3.46198 14.9307 3.88063C14.9021 3.74108 14.8735 3.46198 14.759 3.40616Z" fill="white"/>
<path d="M9.00579 16.3006C9.1489 16.1611 9.37788 16.0773 9.43512 15.9099C9.57823 15.5191 9.74997 15.6029 9.97894 15.8261L10.2938 15.4912L10.2652 15.3796H9.52099C9.32063 15.6587 9.12028 15.9099 8.91992 16.189L9.00579 16.3006Z" fill="white"/>
<path d="M39.6894 35.112L39.002 35.8941L39.3457 36.2573C39.4889 35.8383 39.6322 35.5031 39.7467 35.1679L39.6894 35.112Z" fill="white"/>
<path d="M20.5416 2.48548C20.5129 2.40169 20.4843 2.28996 20.427 2.26203C20.1405 2.17823 19.8254 2.12236 19.5103 2.03856C19.5103 2.06649 19.4817 2.12236 19.4817 2.15029C19.7681 2.28995 20.026 2.42961 20.3124 2.56928C20.3697 2.59721 20.4843 2.51342 20.5416 2.48548Z" fill="white"/>
<path d="M8.97729 15.518L9.52065 15.3788L9.12028 15.0168C9.03449 15.2953 8.97729 15.4624 8.97729 15.518Z" fill="white"/>
<path d="M10.6373 3.88065L10.6086 3.99222L11.8117 4.32696L11.8404 4.21539L10.6373 3.88065Z" fill="white"/>
<path d="M22.7455 0.839171C22.7455 0.811195 22.7455 0.755245 22.7741 0.727269L21.6856 0.531433L21.657 0.615358L22.7455 0.839171Z" fill="white"/>
<path d="M9.83626 13.7887C9.72168 14.1239 9.57845 14.4591 9.46387 14.7943L9.57845 14.8502C9.69303 14.515 9.77896 14.1518 9.8649 13.8166L9.83626 13.7887Z" fill="white"/>
<path d="M11.3815 78.0656C11.3815 77.6749 11.3815 77.5353 11.267 77.5353C11.2384 77.5353 11.1812 77.5632 11.1525 77.647H11.1239L11.1525 77.3958V77.3679C11.0953 77.3679 11.0381 77.34 11.0094 77.3121C11.0094 77.3121 10.9808 77.34 10.9808 77.3679L10.9522 77.5632H10.9236C10.8949 77.5632 10.8663 77.5632 10.8663 77.5632C10.8663 77.3121 10.8377 77.033 10.7518 76.7818C10.7232 76.7539 10.6946 76.726 10.6373 76.698L10.0077 76.3352C9.97904 76.3073 9.97904 76.2515 9.97904 76.2236C10.0077 76.0561 10.0077 75.8887 9.95041 75.7212C9.95041 75.6654 9.92179 75.6375 9.86455 75.6095C10.3225 75.3304 10.437 74.7164 10.1508 74.2978C10.1221 74.2699 10.0935 74.2419 10.0935 74.214C10.0077 74.1582 9.92179 74.0745 9.83593 73.9908C9.69282 73.907 9.52108 73.8512 9.34935 73.8512C8.83415 73.8512 8.40482 74.214 8.34757 74.7164C8.37619 74.7443 8.3762 74.8002 8.43344 74.8281V75.1072V75.163C8.43344 75.163 8.46206 75.6095 8.51931 75.8328C8.26171 75.7491 7.97549 75.777 7.74651 75.9445C7.68927 76.0003 7.66064 76.084 7.63202 76.1677L7.66064 76.0561L7.57478 76.1119L7.0882 75.3304C7.05958 75.3025 7.00234 75.3025 6.97371 75.2746L6.71611 75.2467L6.65887 75.3863C6.63025 75.3584 6.573 75.3583 6.54438 75.3583L6.573 75.2467C6.51576 75.2467 6.45851 75.2188 6.42989 75.1909L6.40127 75.163L6.37265 75.2746C6.3154 75.2467 6.22954 75.2467 6.17229 75.2467C6.08643 75.2746 6.02918 75.3584 6.00056 75.4421C5.97194 75.6096 6.00056 75.7491 6.08643 75.8886C6.11505 75.9445 6.20092 75.9445 6.25816 75.9445L6.22954 76.084C6.22954 76.1398 6.25816 76.1677 6.28678 76.1956C6.3154 76.1956 6.37265 76.1678 6.37265 76.1398L5.97194 77.2004V77.2283L5.94332 77.2562L6.14367 78.7634C6.00056 79.0425 5.94332 79.182 6.02918 79.182C5.91469 79.2658 5.80021 79.3495 5.68572 79.4053C4.97016 79.9356 3.3387 81.2195 2.79488 82.1126C2.48004 82.6429 1.62137 84.15 0.991686 84.8757C1.02031 84.9315 1.04893 84.9873 1.10618 85.0431C0.963067 85.099 0.819954 85.1548 0.648221 85.1827C0.476489 85.2106 0.218889 85.1269 0.133022 85.1548C0.0471557 85.1827 -0.0387089 85.3502 0.0185353 85.4339C0.0185353 85.4339 -0.0100868 85.4897 0.0185353 85.5176C0.247512 85.7688 1.07755 85.8525 1.07755 85.8525C1.22066 85.9642 1.42102 86.02 1.59275 86.0479C1.62137 86.0479 1.65 86.02 1.65 85.9921V85.9642C1.76448 85.8246 1.85035 85.6851 1.87897 85.5176L2.07933 85.6014C2.07933 85.6014 3.39595 83.9826 3.73941 82.8383C3.76803 82.7266 4.54083 82.2521 5.19914 81.8335C5.19914 81.9172 5.22776 82.0289 5.25639 82.1126C5.05603 82.4196 4.85567 82.7266 4.71256 83.0894C4.31185 84.1779 3.82528 85.2385 3.22421 86.2433C3.25284 86.2991 3.31008 86.3549 3.36732 86.4108C3.22421 86.4945 3.0811 86.5782 2.93799 86.6061C2.8235 86.634 2.68039 86.6061 2.59453 86.6619C2.50866 86.7178 2.48004 86.8294 2.50866 86.9131C2.50866 86.9689 2.48004 86.9969 2.50866 87.0248C2.79488 87.1922 3.13835 87.3039 3.48181 87.3039C3.48181 87.3039 3.79666 87.3876 3.8539 87.3318C3.91114 87.276 3.88252 87.3039 3.88252 87.2481C3.96839 87.0806 4.02563 86.8852 4.05425 86.6899C4.14012 86.7178 4.25461 86.7178 4.34048 86.7178C4.34048 86.7178 5.62847 84.8199 5.94332 83.7035C6.02918 83.536 6.17229 83.3965 6.3154 83.2569L7.94687 84.1779V84.15C8.31895 84.4012 8.83415 84.4291 9.54971 83.9826C10.6946 83.2848 10.8949 81.0799 10.8949 79.7123C10.9522 79.7123 11.0094 79.6844 11.0381 79.6565C11.267 79.4053 11.267 79.2937 11.3243 78.875C11.3529 78.6238 11.267 78.6238 11.267 78.6238C11.3529 78.4843 11.4101 78.3168 11.3815 78.1773C11.3815 78.1494 11.4101 78.1215 11.4101 78.1215C11.4101 78.0935 11.3815 78.0935 11.3815 78.0656Z" fill="white"/>
</svg>
